<svg width="908.0" height="540" xmlns="http://www.w3.org/2000/svg">
<path stroke-width="0.1" stroke="gray" d="M 69 206 369 256"/>
<path stroke-width="0.1" stroke="gray" d="M 369 256 221 463"/>
<path stroke-width="0.1" stroke="gray" d="M 369 256 502 66"/>
<path stroke-width="0.1" stroke="gray" d="M 369 256 674 396"/>
<path stroke-width="0.1" stroke="gray" d="M 369 256 650 152"/>
<path stroke-width="0.1" stroke="gray" d="M 369 256 436 36"/>
<path stroke-width="0.1" stroke="gray" d="M 369 256 510 397"/>
<path stroke-width="0.1" stroke="gray" d="M 369 256 124 360"/>
<path stroke-width="0.1" stroke="gray" d="M 369 256 331 146"/>
<path stroke-width="0.1" stroke="gray" d="M 369 256 76 142"/>
<path stroke-width="0.1" stroke="gray" d="M 369 256 324 20"/>
<path stroke-width="0.1" stroke="gray" d="M 369 256 272 309"/>
<path stroke-width="0.1" stroke="gray" d="M 369 256 163 437"/>
<path stroke-width="0.1" stroke="gray" d="M 369 256 433 267"/>
<path stroke-width="0.1" stroke="gray" d="M 369 256 563 474"/>
<path stroke-width="0.1" stroke="gray" d="M 369 256 431 365"/>
<path stroke-width="0.1" stroke="gray" d="M 369 256 145 92"/>
<path stroke-width="0.1" stroke="gray" d="M 369 256 614 350"/>
<path stroke-width="0.1" stroke="gray" d="M 369 256 309 363"/>
<path stroke-width="0.1" stroke="gray" d="M 369 256 632 85"/>
<path stroke-width="0.1" stroke="gray" d="M 369 256 369 400"/>
<path stroke-width="0.1" stroke="gray" d="M 369 256 20 259"/>
<path stroke-width="0.1" stroke="gray" d="M 369 256 720 208"/>
<path stroke-width="0.1" stroke="gray" d="M 369 256 361 95"/>
<path stroke-width="0.1" stroke="gray" d="M 369 256 420 520"/>
<path stroke-width="0.1" stroke="gray" d="M 369 256 610 236"/>
<path stroke-width="0.1" stroke="gray" d="M 369 256 490 154"/>
<path stroke-width="0.1" stroke="gray" d="M 179 391 369 256"/>
<path stroke-width="0.1" stroke="gray" d="M 179 391 163 437"/>
<path stroke-width="0.1" stroke="gray" d="M 179 391 309 363"/>
<path stroke-width="0.1" stroke="gray" d="M 364 464 369 256"/>
<path stroke-width="0.1" stroke="gray" d="M 364 464 309 363"/>
<path stroke-width="0.1" stroke="gray" d="M 364 464 369 400"/>
<path stroke-width="0.1" stroke="gray" d="M 254 203 369 256"/>
<path stroke-width="0.1" stroke="gray" d="M 254 203 331 146"/>
<path stroke-width="0.1" stroke="gray" d="M 254 203 361 95"/>
<path stroke-width="0.1" stroke="gray" d="M 254 203 309 363"/>
<path stroke-width="0.1" stroke="gray" d="M 490 154 369 256"/>
<path stroke-width="0.1" stroke="gray" d="M 490 154 433 267"/>
<path stroke-width="0.1" stroke="gray" d="M 610 236 369 256"/>
<path stroke-width="0.1" stroke="gray" d="M 420 520 369 256"/>
<path stroke-width="0.1" stroke="gray" d="M 272 309 369 256"/>
<path stroke-width="0.1" stroke="gray" d="M 272 309 431 365"/>
<path stroke-width="0.1" stroke="gray" d="M 221 463 369 256"/>
<path stroke-width="0.1" stroke="gray" d="M 221 463 124 360"/>
<path stroke-width="0.1" stroke="gray" d="M 369 256 224 41"/>
<path stroke-width="0.1" stroke="gray" d="M 369 256 39 329"/>
<path stroke-width="0.1" stroke="gray" d="M 369 256 179 391"/>
<path stroke-width="0.1" stroke="gray" d="M 369 256 364 464"/>
<path stroke-width="0.1" stroke="gray" d="M 369 256 254 203"/>
<path stroke-width="0.1" stroke="gray" d="M 369 256 709 288"/>
<path stroke-width="0.1" stroke="gray" d="M 369 256 69 206"/>
<path stroke-width="0.1" stroke="gray" d="M 502 66 369 256"/>
<path stroke-width="0.1" stroke="gray" d="M 502 66 436 36"/>
<path stroke-width="0.1" stroke="gray" d="M 433 267 369 400"/>
<path stroke-width="0.1" stroke="gray" d="M 563 474 369 256"/>
<path stroke-width="0.1" stroke="gray" d="M 431 365 272 309"/>
<path stroke-width="0.1" stroke="gray" d="M 431 365 369 256"/>
<path stroke-width="0.1" stroke="gray" d="M 145 92 369 256"/>
<path stroke-width="0.1" stroke="gray" d="M 614 350 369 256"/>
<path stroke-width="0.1" stroke="gray" d="M 614 350 510 397"/>
<path stroke-width="0.1" stroke="gray" d="M 309 363 179 391"/>
<path stroke-width="0.1" stroke="gray" d="M 309 363 364 464"/>
<path stroke-width="0.1" stroke="gray" d="M 309 363 254 203"/>
<path stroke-width="0.1" stroke="gray" d="M 309 363 369 256"/>
<path stroke-width="0.1" stroke="gray" d="M 309 363 510 397"/>
<path stroke-width="0.1" stroke="gray" d="M 309 363 163 437"/>
<path stroke-width="0.1" stroke="gray" d="M 309 363 433 267"/>
<path stroke-width="0.1" stroke="gray" d="M 309 363 369 400"/>
<path stroke-width="0.1" stroke="gray" d="M 632 85 369 256"/>
<path stroke-width="0.1" stroke="gray" d="M 369 400 364 464"/>
<path stroke-width="0.1" stroke="gray" d="M 369 400 369 256"/>
<path stroke-width="0.1" stroke="gray" d="M 369 400 433 267"/>
<path stroke-width="0.1" stroke="gray" d="M 369 400 309 363"/>
<path stroke-width="0.1" stroke="gray" d="M 20 259 369 256"/>
<path stroke-width="0.1" stroke="gray" d="M 720 208 369 256"/>
<path stroke-width="0.1" stroke="gray" d="M 709 288 369 256"/>
<path stroke-width="0.1" stroke="gray" d="M 433 267 309 363"/>
<path stroke-width="0.1" stroke="gray" d="M 39 329 369 256"/>
<path stroke-width="0.1" stroke="gray" d="M 433 267 369 256"/>
<path stroke-width="0.1" stroke="gray" d="M 361 95 331 146"/>
<path stroke-width="0.1" stroke="gray" d="M 502 66 361 95"/>
<path stroke-width="0.1" stroke="gray" d="M 674 396 369 256"/>
<path stroke-width="0.1" stroke="gray" d="M 650 152 369 256"/>
<path stroke-width="0.1" stroke="gray" d="M 436 36 369 256"/>
<path stroke-width="0.1" stroke="gray" d="M 436 36 502 66"/>
<path stroke-width="0.1" stroke="gray" d="M 436 36 361 95"/>
<path stroke-width="0.1" stroke="gray" d="M 510 397 369 256"/>
<path stroke-width="0.1" stroke="gray" d="M 510 397 614 350"/>
<path stroke-width="0.1" stroke="gray" d="M 510 397 309 363"/>
<path stroke-width="0.1" stroke="gray" d="M 124 360 221 463"/>
<path stroke-width="0.1" stroke="gray" d="M 124 360 369 256"/>
<path stroke-width="0.1" stroke="gray" d="M 331 146 254 203"/>
<path stroke-width="0.1" stroke="gray" d="M 331 146 369 256"/>
<path stroke-width="0.1" stroke="gray" d="M 331 146 361 95"/>
<path stroke-width="0.1" stroke="gray" d="M 76 142 369 256"/>
<path stroke-width="0.1" stroke="gray" d="M 324 20 369 256"/>
<path stroke-width="0.1" stroke="gray" d="M 163 437 179 391"/>
<path stroke-width="0.1" stroke="gray" d="M 163 437 369 256"/>
<path stroke-width="0.1" stroke="gray" d="M 163 437 309 363"/>
<path stroke-width="0.1" stroke="gray" d="M 361 95 254 203"/>
<path stroke-width="0.1" stroke="gray" d="M 361 95 369 256"/>
<path stroke-width="0.1" stroke="gray" d="M 361 95 502 66"/>
<path stroke-width="0.1" stroke="gray" d="M 361 95 436 36"/>
<path stroke-width="0.1" stroke="gray" d="M 433 267 490 154"/>
<path stroke-width="0.1" stroke="gray" d="M 224 41 369 256"/>
<circle cx="69" cy="206" r="3.0" style="fill:rgb(58, 76, 192);stroke:black;stroke-width:1.0"/>
<circle cx="709" cy="288" r="3.0" style="fill:rgb(58, 76, 192);stroke:black;stroke-width:1.0"/>
<circle cx="720" cy="208" r="3.0" style="fill:rgb(58, 76, 192);stroke:black;stroke-width:1.0"/>
<circle cx="20" cy="259" r="3.0" style="fill:rgb(58, 76, 192);stroke:black;stroke-width:1.0"/>
<circle cx="369" cy="400" r="3.0" style="fill:rgb(80, 107, 218);stroke:black;stroke-width:1.0"/>
<circle cx="632" cy="85" r="3.0" style="fill:rgb(58, 76, 192);stroke:black;stroke-width:1.0"/>
<circle cx="309" cy="363" r="3.0" style="fill:rgb(112, 147, 243);stroke:black;stroke-width:1.0"/>
<circle cx="614" cy="350" r="3.0" style="fill:rgb(64, 84, 199);stroke:black;stroke-width:1.0"/>
<circle cx="145" cy="92" r="3.0" style="fill:rgb(58, 76, 192);stroke:black;stroke-width:1.0"/>
<circle cx="431" cy="365" r="3.0" style="fill:rgb(66, 88, 202);stroke:black;stroke-width:1.0"/>
<circle cx="563" cy="474" r="3.0" style="fill:rgb(58, 76, 192);stroke:black;stroke-width:1.0"/>
<circle cx="433" cy="267" r="3.0" style="fill:rgb(80, 107, 218);stroke:black;stroke-width:1.0"/>
<circle cx="361" cy="95" r="3.0" style="fill:rgb(88, 118, 226);stroke:black;stroke-width:1.0"/>
<circle cx="163" cy="437" r="3.0" style="fill:rgb(70, 93, 207);stroke:black;stroke-width:1.0"/>
<circle cx="324" cy="20" r="3.0" style="fill:rgb(58, 76, 192);stroke:black;stroke-width:1.0"/>
<circle cx="76" cy="142" r="3.0" style="fill:rgb(58, 76, 192);stroke:black;stroke-width:1.0"/>
<circle cx="331" cy="146" r="3.0" style="fill:rgb(70, 93, 207);stroke:black;stroke-width:1.0"/>
<circle cx="124" cy="360" r="3.0" style="fill:rgb(66, 88, 202);stroke:black;stroke-width:1.0"/>
<circle cx="510" cy="397" r="3.0" style="fill:rgb(72, 96, 209);stroke:black;stroke-width:1.0"/>
<circle cx="436" cy="36" r="3.0" style="fill:rgb(72, 96, 209);stroke:black;stroke-width:1.0"/>
<circle cx="650" cy="152" r="3.0" style="fill:rgb(58, 76, 192);stroke:black;stroke-width:1.0"/>
<circle cx="674" cy="396" r="3.0" style="fill:rgb(58, 76, 192);stroke:black;stroke-width:1.0"/>
<circle cx="502" cy="66" r="3.0" style="fill:rgb(72, 96, 209);stroke:black;stroke-width:1.0"/>
<circle cx="369" cy="256" r="3.0" style="fill:rgb(179, 3, 38);stroke:black;stroke-width:1.0"/>
<circle cx="221" cy="463" r="3.0" style="fill:rgb(66, 88, 202);stroke:black;stroke-width:1.0"/>
<circle cx="272" cy="309" r="3.0" style="fill:rgb(66, 88, 202);stroke:black;stroke-width:1.0"/>
<circle cx="420" cy="520" r="3.0" style="fill:rgb(58, 76, 192);stroke:black;stroke-width:1.0"/>
<circle cx="610" cy="236" r="3.0" style="fill:rgb(58, 76, 192);stroke:black;stroke-width:1.0"/>
<circle cx="490" cy="154" r="3.0" style="fill:rgb(64, 84, 199);stroke:black;stroke-width:1.0"/>
<circle cx="254" cy="203" r="3.0" style="fill:rgb(80, 107, 218);stroke:black;stroke-width:1.0"/>
<circle cx="364" cy="464" r="3.0" style="fill:rgb(70, 93, 207);stroke:black;stroke-width:1.0"/>
<circle cx="179" cy="391" r="3.0" style="fill:rgb(70, 93, 207);stroke:black;stroke-width:1.0"/>
<circle cx="39" cy="329" r="3.0" style="fill:rgb(58, 76, 192);stroke:black;stroke-width:1.0"/>
<circle cx="224" cy="41" r="3.0" style="fill:rgb(58, 76, 192);stroke:black;stroke-width:1.0"/>
<text text-anchor="start" x="75" y="206" font-size="12">blockchain, ethereum   smart contractsby</text><text text-anchor="start" x="715" y="288" font-size="12">iceland</text><text text-anchor="start" x="726" y="208" font-size="12">charles munger</text><text text-anchor="start" x="26" y="259" font-size="12">david gerard</text><text text-anchor="start" x="375" y="400" font-size="12">china</text><text text-anchor="start" x="638" y="85" font-size="12">texas</text><text text-anchor="start" x="315" y="363" font-size="12">us</text><text text-anchor="start" x="620" y="350" font-size="12">uk</text><text text-anchor="start" x="151" y="92" font-size="12">steven englander</text><text text-anchor="start" x="437" y="365" font-size="12">bitstamp exchange</text><text text-anchor="start" x="569" y="474" font-size="12">michael goldstein</text><text text-anchor="start" x="439" y="267" font-size="12">south korea</text><text text-anchor="start" x="367" y="95" font-size="12">ethereum</text><text text-anchor="start" x="169" y="437" font-size="12">christine lagarde</text><text text-anchor="start" x="330" y="20" font-size="12">cfd</text><text text-anchor="start" x="82" y="142" font-size="12">blockstack</text><text text-anchor="start" x="337" y="146" font-size="12">unicef</text><text text-anchor="start" x="130" y="360" font-size="12">warren buffett</text><text text-anchor="start" x="516" y="397" font-size="12">imf</text><text text-anchor="start" x="442" y="36" font-size="12">ripple</text><text text-anchor="start" x="656" y="152" font-size="12">proofpoint</text><text text-anchor="start" x="680" y="396" font-size="12">new york</text><text text-anchor="start" x="508" y="66" font-size="12">monero</text><text text-anchor="start" x="375" y="256" font-size="12">bitcoin</text><text text-anchor="start" x="227" y="463" font-size="12">ubs</text><text text-anchor="start" x="278" y="309" font-size="12">luxembourg</text><text text-anchor="start" x="426" y="520" font-size="12">rafiki capital</text><text text-anchor="start" x="616" y="236" font-size="12">bitstamp</text><text text-anchor="start" x="496" y="154" font-size="12">axel weber</text><text text-anchor="start" x="260" y="203" font-size="12">un</text><text text-anchor="start" x="370" y="464" font-size="12">russia</text><text text-anchor="start" x="185" y="391" font-size="12">the international monetary fund</text><text text-anchor="start" x="45" y="329" font-size="12">marmite</text><text text-anchor="start" x="230" y="41" font-size="12">austin</text></svg>
