<svg width="1189.373954174957" height="540" xmlns="http://www.w3.org/2000/svg">
<path stroke-width="0.1" stroke="gray" d="M 537 114 379 263"/>
<path stroke-width="0.1" stroke="gray" d="M 473 396 379 263"/>
<path stroke-width="0.1" stroke="gray" d="M 224 441 155 463"/>
<path stroke-width="0.1" stroke="gray" d="M 224 441 379 263"/>
<path stroke-width="0.1" stroke="gray" d="M 720 285 379 263"/>
<path stroke-width="0.1" stroke="gray" d="M 343 39 427 48"/>
<path stroke-width="0.1" stroke="gray" d="M 343 39 292 114"/>
<path stroke-width="0.1" stroke="gray" d="M 343 39 379 263"/>
<path stroke-width="0.1" stroke="gray" d="M 100 371 121 299"/>
<path stroke-width="0.1" stroke="gray" d="M 100 371 379 263"/>
<path stroke-width="0.1" stroke="gray" d="M 473 396 481 445"/>
<path stroke-width="0.1" stroke="gray" d="M 246 240 444 211"/>
<path stroke-width="0.1" stroke="gray" d="M 246 240 292 114"/>
<path stroke-width="0.1" stroke="gray" d="M 246 240 121 299"/>
<path stroke-width="0.1" stroke="gray" d="M 246 240 352 342"/>
<path stroke-width="0.1" stroke="gray" d="M 246 240 379 263"/>
<path stroke-width="0.1" stroke="gray" d="M 292 114 304 201"/>
<path stroke-width="0.1" stroke="gray" d="M 292 114 427 48"/>
<path stroke-width="0.1" stroke="gray" d="M 292 114 343 39"/>
<path stroke-width="0.1" stroke="gray" d="M 292 114 246 240"/>
<path stroke-width="0.1" stroke="gray" d="M 292 114 379 263"/>
<path stroke-width="0.1" stroke="gray" d="M 246 240 304 201"/>
<path stroke-width="0.1" stroke="gray" d="M 473 396 352 342"/>
<path stroke-width="0.1" stroke="gray" d="M 473 396 376 454"/>
<path stroke-width="0.1" stroke="gray" d="M 473 396 581 433"/>
<path stroke-width="0.1" stroke="gray" d="M 444 211 246 240"/>
<path stroke-width="0.1" stroke="gray" d="M 444 211 379 263"/>
<path stroke-width="0.1" stroke="gray" d="M 545 39 427 48"/>
<path stroke-width="0.1" stroke="gray" d="M 545 39 379 263"/>
<path stroke-width="0.1" stroke="gray" d="M 355 520 379 263"/>
<path stroke-width="0.1" stroke="gray" d="M 304 201 444 211"/>
<path stroke-width="0.1" stroke="gray" d="M 304 201 246 240"/>
<path stroke-width="0.1" stroke="gray" d="M 304 201 292 114"/>
<path stroke-width="0.1" stroke="gray" d="M 304 201 352 342"/>
<path stroke-width="0.1" stroke="gray" d="M 304 201 379 263"/>
<path stroke-width="0.1" stroke="gray" d="M 615 245 444 211"/>
<path stroke-width="0.1" stroke="gray" d="M 615 245 379 263"/>
<path stroke-width="0.1" stroke="gray" d="M 427 48 545 39"/>
<path stroke-width="0.1" stroke="gray" d="M 427 48 343 39"/>
<path stroke-width="0.1" stroke="gray" d="M 427 48 292 114"/>
<path stroke-width="0.1" stroke="gray" d="M 427 48 379 263"/>
<path stroke-width="0.1" stroke="gray" d="M 581 433 473 396"/>
<path stroke-width="0.1" stroke="gray" d="M 581 433 481 445"/>
<path stroke-width="0.1" stroke="gray" d="M 581 433 379 263"/>
<path stroke-width="0.1" stroke="gray" d="M 376 454 473 396"/>
<path stroke-width="0.1" stroke="gray" d="M 376 454 379 263"/>
<path stroke-width="0.1" stroke="gray" d="M 155 463 224 441"/>
<path stroke-width="0.1" stroke="gray" d="M 155 463 379 263"/>
<path stroke-width="0.1" stroke="gray" d="M 676 367 379 263"/>
<path stroke-width="0.1" stroke="gray" d="M 121 299 100 371"/>
<path stroke-width="0.1" stroke="gray" d="M 379 263 224 441"/>
<path stroke-width="0.1" stroke="gray" d="M 379 263 720 285"/>
<path stroke-width="0.1" stroke="gray" d="M 379 263 343 39"/>
<path stroke-width="0.1" stroke="gray" d="M 379 263 100 371"/>
<path stroke-width="0.1" stroke="gray" d="M 379 263 246 240"/>
<path stroke-width="0.1" stroke="gray" d="M 379 263 292 114"/>
<path stroke-width="0.1" stroke="gray" d="M 379 263 155 463"/>
<path stroke-width="0.1" stroke="gray" d="M 379 263 676 367"/>
<path stroke-width="0.1" stroke="gray" d="M 379 263 121 299"/>
<path stroke-width="0.1" stroke="gray" d="M 379 263 20 267"/>
<path stroke-width="0.1" stroke="gray" d="M 379 263 603 167"/>
<path stroke-width="0.1" stroke="gray" d="M 379 263 352 342"/>
<path stroke-width="0.1" stroke="gray" d="M 379 263 689 133"/>
<path stroke-width="0.1" stroke="gray" d="M 379 263 118 99"/>
<path stroke-width="0.1" stroke="gray" d="M 379 263 481 445"/>
<path stroke-width="0.1" stroke="gray" d="M 379 263 246 20"/>
<path stroke-width="0.1" stroke="gray" d="M 379 263 60 177"/>
<path stroke-width="0.1" stroke="gray" d="M 379 263 537 114"/>
<path stroke-width="0.1" stroke="gray" d="M 246 20 379 263"/>
<path stroke-width="0.1" stroke="gray" d="M 60 177 379 263"/>
<path stroke-width="0.1" stroke="gray" d="M 537 114 603 167"/>
<path stroke-width="0.1" stroke="gray" d="M 379 263 473 396"/>
<path stroke-width="0.1" stroke="gray" d="M 444 211 615 245"/>
<path stroke-width="0.1" stroke="gray" d="M 379 263 376 454"/>
<path stroke-width="0.1" stroke="gray" d="M 379 263 427 48"/>
<path stroke-width="0.1" stroke="gray" d="M 121 299 246 240"/>
<path stroke-width="0.1" stroke="gray" d="M 121 299 379 263"/>
<path stroke-width="0.1" stroke="gray" d="M 20 267 379 263"/>
<path stroke-width="0.1" stroke="gray" d="M 603 167 379 263"/>
<path stroke-width="0.1" stroke="gray" d="M 603 167 537 114"/>
<path stroke-width="0.1" stroke="gray" d="M 352 342 304 201"/>
<path stroke-width="0.1" stroke="gray" d="M 352 342 473 396"/>
<path stroke-width="0.1" stroke="gray" d="M 352 342 246 240"/>
<path stroke-width="0.1" stroke="gray" d="M 352 342 481 445"/>
<path stroke-width="0.1" stroke="gray" d="M 352 342 379 263"/>
<path stroke-width="0.1" stroke="gray" d="M 689 133 379 263"/>
<path stroke-width="0.1" stroke="gray" d="M 118 99 379 263"/>
<path stroke-width="0.1" stroke="gray" d="M 481 445 581 433"/>
<path stroke-width="0.1" stroke="gray" d="M 481 445 473 396"/>
<path stroke-width="0.1" stroke="gray" d="M 481 445 352 342"/>
<path stroke-width="0.1" stroke="gray" d="M 481 445 379 263"/>
<path stroke-width="0.1" stroke="gray" d="M 379 263 444 211"/>
<path stroke-width="0.1" stroke="gray" d="M 379 263 545 39"/>
<path stroke-width="0.1" stroke="gray" d="M 379 263 355 520"/>
<path stroke-width="0.1" stroke="gray" d="M 379 263 304 201"/>
<path stroke-width="0.1" stroke="gray" d="M 379 263 615 245"/>
<path stroke-width="0.1" stroke="gray" d="M 379 263 581 433"/>
<path stroke-width="0.1" stroke="gray" d="M 444 211 304 201"/>
<circle cx="537" cy="114" r="3.0" style="fill:rgb(66, 88, 202);stroke:black;stroke-width:1.0"/>
<circle cx="60" cy="177" r="3.0" style="fill:rgb(58, 76, 192);stroke:black;stroke-width:1.0"/>
<circle cx="246" cy="20" r="3.0" style="fill:rgb(58, 76, 192);stroke:black;stroke-width:1.0"/>
<circle cx="379" cy="263" r="3.0" style="fill:rgb(179, 3, 38);stroke:black;stroke-width:1.0"/>
<circle cx="481" cy="445" r="3.0" style="fill:rgb(86, 115, 224);stroke:black;stroke-width:1.0"/>
<circle cx="118" cy="99" r="3.0" style="fill:rgb(58, 76, 192);stroke:black;stroke-width:1.0"/>
<circle cx="689" cy="133" r="3.0" style="fill:rgb(58, 76, 192);stroke:black;stroke-width:1.0"/>
<circle cx="352" cy="342" r="3.0" style="fill:rgb(96, 128, 232);stroke:black;stroke-width:1.0"/>
<circle cx="603" cy="167" r="3.0" style="fill:rgb(66, 88, 202);stroke:black;stroke-width:1.0"/>
<circle cx="20" cy="267" r="3.0" style="fill:rgb(58, 76, 192);stroke:black;stroke-width:1.0"/>
<circle cx="121" cy="299" r="3.0" style="fill:rgb(76, 102, 214);stroke:black;stroke-width:1.0"/>
<circle cx="676" cy="367" r="3.0" style="fill:rgb(58, 76, 192);stroke:black;stroke-width:1.0"/>
<circle cx="155" cy="463" r="3.0" style="fill:rgb(66, 88, 202);stroke:black;stroke-width:1.0"/>
<circle cx="292" cy="114" r="3.0" style="fill:rgb(96, 128, 232);stroke:black;stroke-width:1.0"/>
<circle cx="246" cy="240" r="3.0" style="fill:rgb(105, 139, 239);stroke:black;stroke-width:1.0"/>
<circle cx="100" cy="371" r="3.0" style="fill:rgb(66, 88, 202);stroke:black;stroke-width:1.0"/>
<circle cx="343" cy="39" r="3.0" style="fill:rgb(76, 102, 214);stroke:black;stroke-width:1.0"/>
<circle cx="720" cy="285" r="3.0" style="fill:rgb(58, 76, 192);stroke:black;stroke-width:1.0"/>
<circle cx="224" cy="441" r="3.0" style="fill:rgb(66, 88, 202);stroke:black;stroke-width:1.0"/>
<circle cx="473" cy="396" r="3.0" style="fill:rgb(99, 131, 234);stroke:black;stroke-width:1.0"/>
<circle cx="376" cy="454" r="3.0" style="fill:rgb(66, 88, 202);stroke:black;stroke-width:1.0"/>
<circle cx="581" cy="433" r="3.0" style="fill:rgb(76, 102, 214);stroke:black;stroke-width:1.0"/>
<circle cx="427" cy="48" r="3.0" style="fill:rgb(88, 118, 226);stroke:black;stroke-width:1.0"/>
<circle cx="615" cy="245" r="3.0" style="fill:rgb(66, 88, 202);stroke:black;stroke-width:1.0"/>
<circle cx="304" cy="201" r="3.0" style="fill:rgb(96, 128, 232);stroke:black;stroke-width:1.0"/>
<circle cx="355" cy="520" r="3.0" style="fill:rgb(58, 76, 192);stroke:black;stroke-width:1.0"/>
<circle cx="545" cy="39" r="3.0" style="fill:rgb(66, 88, 202);stroke:black;stroke-width:1.0"/>
<circle cx="444" cy="211" r="3.0" style="fill:rgb(86, 115, 224);stroke:black;stroke-width:1.0"/>
<text text-anchor="start" x="543" y="114" font-size="12">New York</text><text text-anchor="start" x="66" y="177" font-size="12">Blockstack</text><text text-anchor="start" x="252" y="20" font-size="12">Marmite</text><text text-anchor="start" x="385" y="263" font-size="12">Bitcoin</text><text text-anchor="start" x="487" y="445" font-size="12">Ripple</text><text text-anchor="start" x="124" y="99" font-size="12">Proofpoint</text><text text-anchor="start" x="695" y="133" font-size="12">Blockchain, Ethereum   Smart Contractsby</text><text text-anchor="start" x="358" y="342" font-size="12">Russia</text><text text-anchor="start" x="609" y="167" font-size="12">Steven Englander</text><text text-anchor="start" x="26" y="267" font-size="12">Bitstamp</text><text text-anchor="start" x="127" y="299" font-size="12">the International Monetary Fund</text><text text-anchor="start" x="682" y="367" font-size="12">Michael Goldstein</text><text text-anchor="start" x="161" y="463" font-size="12">Luxembourg</text><text text-anchor="start" x="298" y="114" font-size="12">South Korea</text><text text-anchor="start" x="252" y="240" font-size="12">US</text><text text-anchor="start" x="106" y="371" font-size="12">Christine Lagarde</text><text text-anchor="start" x="349" y="39" font-size="12">Axel Weber</text><text text-anchor="start" x="726" y="285" font-size="12">CFD</text><text text-anchor="start" x="230" y="441" font-size="12">Bitstamp exchange</text><text text-anchor="start" x="479" y="396" font-size="12">Ethereum</text><text text-anchor="start" x="382" y="454" font-size="12">Unicef</text><text text-anchor="start" x="587" y="433" font-size="12">Monero</text><text text-anchor="start" x="433" y="48" font-size="12">UBS</text><text text-anchor="start" x="621" y="245" font-size="12">UK</text><text text-anchor="start" x="310" y="201" font-size="12">China</text><text text-anchor="start" x="361" y="520" font-size="12">Iceland</text><text text-anchor="start" x="551" y="39" font-size="12">Warren Buffett</text><text text-anchor="start" x="450" y="211" font-size="12">IMF</text></svg>
