<svg width="1076.0" height="540" xmlns="http://www.w3.org/2000/svg">
<path stroke-width="0.1" stroke="gray" d="M 100 421 372 267"/>
<path stroke-width="0.1" stroke="gray" d="M 372 267 267 51"/>
<path stroke-width="0.1" stroke="gray" d="M 372 267 351 337"/>
<path stroke-width="0.1" stroke="gray" d="M 372 267 455 62"/>
<path stroke-width="0.1" stroke="gray" d="M 372 267 344 250"/>
<path stroke-width="0.1" stroke="gray" d="M 372 267 242 323"/>
<path stroke-width="0.1" stroke="gray" d="M 372 267 415 317"/>
<path stroke-width="0.1" stroke="gray" d="M 372 267 348 171"/>
<path stroke-width="0.1" stroke="gray" d="M 372 267 360 520"/>
<path stroke-width="0.1" stroke="gray" d="M 372 267 611 227"/>
<path stroke-width="0.1" stroke="gray" d="M 372 267 206 487"/>
<path stroke-width="0.1" stroke="gray" d="M 372 267 720 229"/>
<path stroke-width="0.1" stroke="gray" d="M 372 267 367 80"/>
<path stroke-width="0.1" stroke="gray" d="M 372 267 277 96"/>
<path stroke-width="0.1" stroke="gray" d="M 372 267 436 458"/>
<path stroke-width="0.1" stroke="gray" d="M 372 267 462 149"/>
<path stroke-width="0.1" stroke="gray" d="M 372 267 57 138"/>
<path stroke-width="0.1" stroke="gray" d="M 372 267 541 489"/>
<path stroke-width="0.1" stroke="gray" d="M 372 267 719 313"/>
<path stroke-width="0.1" stroke="gray" d="M 372 267 443 497"/>
<path stroke-width="0.1" stroke="gray" d="M 372 267 82 170"/>
<path stroke-width="0.1" stroke="gray" d="M 372 267 514 45"/>
<path stroke-width="0.1" stroke="gray" d="M 372 267 248 515"/>
<path stroke-width="0.1" stroke="gray" d="M 372 267 584 356"/>
<path stroke-width="0.1" stroke="gray" d="M 372 267 191 388"/>
<path stroke-width="0.1" stroke="gray" d="M 372 267 258 368"/>
<path stroke-width="0.1" stroke="gray" d="M 277 287 348 171"/>
<path stroke-width="0.1" stroke="gray" d="M 277 287 462 292"/>
<path stroke-width="0.1" stroke="gray" d="M 277 287 372 267"/>
<path stroke-width="0.1" stroke="gray" d="M 277 287 320 309"/>
<path stroke-width="0.1" stroke="gray" d="M 603 88 372 267"/>
<path stroke-width="0.1" stroke="gray" d="M 664 410 372 267"/>
<path stroke-width="0.1" stroke="gray" d="M 462 292 423 255"/>
<path stroke-width="0.1" stroke="gray" d="M 462 292 351 337"/>
<path stroke-width="0.1" stroke="gray" d="M 462 292 344 250"/>
<path stroke-width="0.1" stroke="gray" d="M 462 292 277 287"/>
<path stroke-width="0.1" stroke="gray" d="M 462 292 372 267"/>
<path stroke-width="0.1" stroke="gray" d="M 372 267 100 421"/>
<path stroke-width="0.1" stroke="gray" d="M 372 267 647 314"/>
<path stroke-width="0.1" stroke="gray" d="M 372 267 215 441"/>
<path stroke-width="0.1" stroke="gray" d="M 372 267 423 255"/>
<path stroke-width="0.1" stroke="gray" d="M 372 267 156 94"/>
<path stroke-width="0.1" stroke="gray" d="M 372 267 443 20"/>
<path stroke-width="0.1" stroke="gray" d="M 372 267 545 443"/>
<path stroke-width="0.1" stroke="gray" d="M 372 267 260 257"/>
<path stroke-width="0.1" stroke="gray" d="M 372 267 97 268"/>
<path stroke-width="0.1" stroke="gray" d="M 372 267 217 173"/>
<path stroke-width="0.1" stroke="gray" d="M 372 267 185 56"/>
<path stroke-width="0.1" stroke="gray" d="M 277 287 415 317"/>
<path stroke-width="0.1" stroke="gray" d="M 372 267 487 352"/>
<path stroke-width="0.1" stroke="gray" d="M 372 267 603 88"/>
<path stroke-width="0.1" stroke="gray" d="M 272 134 414 210"/>
<path stroke-width="0.1" stroke="gray" d="M 272 134 314 211"/>
<path stroke-width="0.1" stroke="gray" d="M 314 211 344 250"/>
<path stroke-width="0.1" stroke="gray" d="M 314 211 415 317"/>
<path stroke-width="0.1" stroke="gray" d="M 314 211 372 267"/>
<path stroke-width="0.1" stroke="gray" d="M 314 211 272 134"/>
<path stroke-width="0.1" stroke="gray" d="M 314 211 320 309"/>
<path stroke-width="0.1" stroke="gray" d="M 496 95 372 267"/>
<path stroke-width="0.1" stroke="gray" d="M 361 386 344 250"/>
<path stroke-width="0.1" stroke="gray" d="M 361 386 415 317"/>
<path stroke-width="0.1" stroke="gray" d="M 361 386 372 267"/>
<path stroke-width="0.1" stroke="gray" d="M 160 365 215 441"/>
<path stroke-width="0.1" stroke="gray" d="M 160 365 372 267"/>
<path stroke-width="0.1" stroke="gray" d="M 160 365 320 309"/>
<path stroke-width="0.1" stroke="gray" d="M 577 170 423 255"/>
<path stroke-width="0.1" stroke="gray" d="M 577 170 372 267"/>
<path stroke-width="0.1" stroke="gray" d="M 20 299 372 267"/>
<path stroke-width="0.1" stroke="gray" d="M 320 309 423 255"/>
<path stroke-width="0.1" stroke="gray" d="M 320 309 344 250"/>
<path stroke-width="0.1" stroke="gray" d="M 320 309 277 287"/>
<path stroke-width="0.1" stroke="gray" d="M 320 309 372 267"/>
<path stroke-width="0.1" stroke="gray" d="M 272 134 372 267"/>
<path stroke-width="0.1" stroke="gray" d="M 372 267 277 287"/>
<path stroke-width="0.1" stroke="gray" d="M 272 134 267 51"/>
<path stroke-width="0.1" stroke="gray" d="M 414 210 372 267"/>
<path stroke-width="0.1" stroke="gray" d="M 372 267 664 410"/>
<path stroke-width="0.1" stroke="gray" d="M 372 267 462 292"/>
<path stroke-width="0.1" stroke="gray" d="M 372 267 91 212"/>
<path stroke-width="0.1" stroke="gray" d="M 372 267 665 207"/>
<path stroke-width="0.1" stroke="gray" d="M 372 267 354 477"/>
<path stroke-width="0.1" stroke="gray" d="M 372 267 414 210"/>
<path stroke-width="0.1" stroke="gray" d="M 372 267 272 134"/>
<path stroke-width="0.1" stroke="gray" d="M 372 267 314 211"/>
<path stroke-width="0.1" stroke="gray" d="M 372 267 496 95"/>
<path stroke-width="0.1" stroke="gray" d="M 372 267 361 386"/>
<path stroke-width="0.1" stroke="gray" d="M 372 267 160 365"/>
<path stroke-width="0.1" stroke="gray" d="M 372 267 577 170"/>
<path stroke-width="0.1" stroke="gray" d="M 372 267 20 299"/>
<path stroke-width="0.1" stroke="gray" d="M 372 267 320 309"/>
<path stroke-width="0.1" stroke="gray" d="M 91 212 372 267"/>
<path stroke-width="0.1" stroke="gray" d="M 665 207 611 227"/>
<path stroke-width="0.1" stroke="gray" d="M 665 207 372 267"/>
<path stroke-width="0.1" stroke="gray" d="M 354 477 443 497"/>
<path stroke-width="0.1" stroke="gray" d="M 354 477 372 267"/>
<path stroke-width="0.1" stroke="gray" d="M 414 210 344 250"/>
<path stroke-width="0.1" stroke="gray" d="M 414 210 487 352"/>
<path stroke-width="0.1" stroke="gray" d="M 414 210 272 134"/>
<path stroke-width="0.1" stroke="gray" d="M 277 287 344 250"/>
<path stroke-width="0.1" stroke="gray" d="M 277 287 351 337"/>
<path stroke-width="0.1" stroke="gray" d="M 277 287 191 388"/>
<path stroke-width="0.1" stroke="gray" d="M 185 56 372 267"/>
<path stroke-width="0.1" stroke="gray" d="M 191 388 242 323"/>
<path stroke-width="0.1" stroke="gray" d="M 191 388 277 287"/>
<path stroke-width="0.1" stroke="gray" d="M 191 388 372 267"/>
<path stroke-width="0.1" stroke="gray" d="M 248 515 372 267"/>
<path stroke-width="0.1" stroke="gray" d="M 267 51 372 267"/>
<path stroke-width="0.1" stroke="gray" d="M 267 51 272 134"/>
<path stroke-width="0.1" stroke="gray" d="M 351 337 423 255"/>
<path stroke-width="0.1" stroke="gray" d="M 351 337 260 257"/>
<path stroke-width="0.1" stroke="gray" d="M 351 337 242 323"/>
<path stroke-width="0.1" stroke="gray" d="M 351 337 277 287"/>
<path stroke-width="0.1" stroke="gray" d="M 351 337 462 292"/>
<path stroke-width="0.1" stroke="gray" d="M 351 337 372 267"/>
<path stroke-width="0.1" stroke="gray" d="M 455 62 372 267"/>
<path stroke-width="0.1" stroke="gray" d="M 344 250 423 255"/>
<path stroke-width="0.1" stroke="gray" d="M 344 250 260 257"/>
<path stroke-width="0.1" stroke="gray" d="M 344 250 217 173"/>
<path stroke-width="0.1" stroke="gray" d="M 344 250 242 323"/>
<path stroke-width="0.1" stroke="gray" d="M 344 250 415 317"/>
<path stroke-width="0.1" stroke="gray" d="M 344 250 348 171"/>
<path stroke-width="0.1" stroke="gray" d="M 344 250 462 149"/>
<path stroke-width="0.1" stroke="gray" d="M 258 368 372 267"/>
<path stroke-width="0.1" stroke="gray" d="M 344 250 277 287"/>
<path stroke-width="0.1" stroke="gray" d="M 217 173 372 267"/>
<path stroke-width="0.1" stroke="gray" d="M 217 173 344 250"/>
<path stroke-width="0.1" stroke="gray" d="M 647 314 372 267"/>
<path stroke-width="0.1" stroke="gray" d="M 215 441 372 267"/>
<path stroke-width="0.1" stroke="gray" d="M 215 441 160 365"/>
<path stroke-width="0.1" stroke="gray" d="M 423 255 351 337"/>
<path stroke-width="0.1" stroke="gray" d="M 423 255 344 250"/>
<path stroke-width="0.1" stroke="gray" d="M 423 255 242 323"/>
<path stroke-width="0.1" stroke="gray" d="M 423 255 348 171"/>
<path stroke-width="0.1" stroke="gray" d="M 423 255 277 287"/>
<path stroke-width="0.1" stroke="gray" d="M 423 255 462 292"/>
<path stroke-width="0.1" stroke="gray" d="M 423 255 372 267"/>
<path stroke-width="0.1" stroke="gray" d="M 423 255 577 170"/>
<path stroke-width="0.1" stroke="gray" d="M 423 255 320 309"/>
<path stroke-width="0.1" stroke="gray" d="M 156 94 372 267"/>
<path stroke-width="0.1" stroke="gray" d="M 443 20 372 267"/>
<path stroke-width="0.1" stroke="gray" d="M 545 443 372 267"/>
<path stroke-width="0.1" stroke="gray" d="M 260 257 351 337"/>
<path stroke-width="0.1" stroke="gray" d="M 260 257 344 250"/>
<path stroke-width="0.1" stroke="gray" d="M 260 257 415 317"/>
<path stroke-width="0.1" stroke="gray" d="M 260 257 372 267"/>
<path stroke-width="0.1" stroke="gray" d="M 97 268 277 287"/>
<path stroke-width="0.1" stroke="gray" d="M 97 268 372 267"/>
<path stroke-width="0.1" stroke="gray" d="M 217 173 277 96"/>
<path stroke-width="0.1" stroke="gray" d="M 344 250 462 292"/>
<path stroke-width="0.1" stroke="gray" d="M 344 250 372 267"/>
<path stroke-width="0.1" stroke="gray" d="M 344 250 414 210"/>
<path stroke-width="0.1" stroke="gray" d="M 367 80 348 171"/>
<path stroke-width="0.1" stroke="gray" d="M 367 80 372 267"/>
<path stroke-width="0.1" stroke="gray" d="M 277 96 217 173"/>
<path stroke-width="0.1" stroke="gray" d="M 277 96 372 267"/>
<path stroke-width="0.1" stroke="gray" d="M 436 458 372 267"/>
<path stroke-width="0.1" stroke="gray" d="M 462 149 344 250"/>
<path stroke-width="0.1" stroke="gray" d="M 462 149 372 267"/>
<path stroke-width="0.1" stroke="gray" d="M 57 138 372 267"/>
<path stroke-width="0.1" stroke="gray" d="M 541 489 372 267"/>
<path stroke-width="0.1" stroke="gray" d="M 719 313 372 267"/>
<path stroke-width="0.1" stroke="gray" d="M 443 497 372 267"/>
<path stroke-width="0.1" stroke="gray" d="M 443 497 354 477"/>
<path stroke-width="0.1" stroke="gray" d="M 82 170 372 267"/>
<path stroke-width="0.1" stroke="gray" d="M 514 45 372 267"/>
<path stroke-width="0.1" stroke="gray" d="M 584 356 415 317"/>
<path stroke-width="0.1" stroke="gray" d="M 584 356 372 267"/>
<path stroke-width="0.1" stroke="gray" d="M 487 352 415 317"/>
<path stroke-width="0.1" stroke="gray" d="M 487 352 372 267"/>
<path stroke-width="0.1" stroke="gray" d="M 487 352 414 210"/>
<path stroke-width="0.1" stroke="gray" d="M 277 287 423 255"/>
<path stroke-width="0.1" stroke="gray" d="M 277 287 97 268"/>
<path stroke-width="0.1" stroke="gray" d="M 720 229 372 267"/>
<path stroke-width="0.1" stroke="gray" d="M 206 487 372 267"/>
<path stroke-width="0.1" stroke="gray" d="M 611 227 665 207"/>
<path stroke-width="0.1" stroke="gray" d="M 611 227 372 267"/>
<path stroke-width="0.1" stroke="gray" d="M 344 250 314 211"/>
<path stroke-width="0.1" stroke="gray" d="M 344 250 361 386"/>
<path stroke-width="0.1" stroke="gray" d="M 344 250 320 309"/>
<path stroke-width="0.1" stroke="gray" d="M 242 323 423 255"/>
<path stroke-width="0.1" stroke="gray" d="M 242 323 191 388"/>
<path stroke-width="0.1" stroke="gray" d="M 242 323 351 337"/>
<path stroke-width="0.1" stroke="gray" d="M 242 323 344 250"/>
<path stroke-width="0.1" stroke="gray" d="M 242 323 372 267"/>
<path stroke-width="0.1" stroke="gray" d="M 415 317 260 257"/>
<path stroke-width="0.1" stroke="gray" d="M 415 317 344 250"/>
<path stroke-width="0.1" stroke="gray" d="M 320 309 314 211"/>
<path stroke-width="0.1" stroke="gray" d="M 415 317 584 356"/>
<path stroke-width="0.1" stroke="gray" d="M 415 317 277 287"/>
<path stroke-width="0.1" stroke="gray" d="M 415 317 372 267"/>
<path stroke-width="0.1" stroke="gray" d="M 415 317 314 211"/>
<path stroke-width="0.1" stroke="gray" d="M 415 317 361 386"/>
<path stroke-width="0.1" stroke="gray" d="M 348 171 423 255"/>
<path stroke-width="0.1" stroke="gray" d="M 348 171 344 250"/>
<path stroke-width="0.1" stroke="gray" d="M 348 171 367 80"/>
<path stroke-width="0.1" stroke="gray" d="M 348 171 277 287"/>
<path stroke-width="0.1" stroke="gray" d="M 348 171 372 267"/>
<path stroke-width="0.1" stroke="gray" d="M 360 520 372 267"/>
<path stroke-width="0.1" stroke="gray" d="M 415 317 487 352"/>
<path stroke-width="0.1" stroke="gray" d="M 320 309 160 365"/>
<circle cx="100" cy="421" r="3.0" style="fill:rgb(58, 76, 192);stroke:black;stroke-width:1.0"/>
<circle cx="647" cy="314" r="3.0" style="fill:rgb(58, 76, 192);stroke:black;stroke-width:1.0"/>
<circle cx="215" cy="441" r="3.0" style="fill:rgb(60, 79, 195);stroke:black;stroke-width:1.0"/>
<circle cx="423" cy="255" r="3.0" style="fill:rgb(92, 123, 229);stroke:black;stroke-width:1.0"/>
<circle cx="156" cy="94" r="3.0" style="fill:rgb(58, 76, 192);stroke:black;stroke-width:1.0"/>
<circle cx="443" cy="20" r="3.0" style="fill:rgb(58, 76, 192);stroke:black;stroke-width:1.0"/>
<circle cx="545" cy="443" r="3.0" style="fill:rgb(58, 76, 192);stroke:black;stroke-width:1.0"/>
<circle cx="260" cy="257" r="3.0" style="fill:rgb(70, 93, 207);stroke:black;stroke-width:1.0"/>
<circle cx="97" cy="268" r="3.0" style="fill:rgb(60, 79, 195);stroke:black;stroke-width:1.0"/>
<circle cx="217" cy="173" r="3.0" style="fill:rgb(66, 88, 202);stroke:black;stroke-width:1.0"/>
<circle cx="258" cy="368" r="3.0" style="fill:rgb(58, 76, 192);stroke:black;stroke-width:1.0"/>
<circle cx="185" cy="56" r="3.0" style="fill:rgb(58, 76, 192);stroke:black;stroke-width:1.0"/>
<circle cx="191" cy="388" r="3.0" style="fill:rgb(64, 84, 199);stroke:black;stroke-width:1.0"/>
<circle cx="248" cy="515" r="3.0" style="fill:rgb(58, 76, 192);stroke:black;stroke-width:1.0"/>
<circle cx="267" cy="51" r="3.0" style="fill:rgb(60, 79, 195);stroke:black;stroke-width:1.0"/>
<circle cx="351" cy="337" r="3.0" style="fill:rgb(76, 102, 214);stroke:black;stroke-width:1.0"/>
<circle cx="455" cy="62" r="3.0" style="fill:rgb(58, 76, 192);stroke:black;stroke-width:1.0"/>
<circle cx="344" cy="250" r="3.0" style="fill:rgb(116, 151, 245);stroke:black;stroke-width:1.0"/>
<circle cx="242" cy="323" r="3.0" style="fill:rgb(72, 96, 209);stroke:black;stroke-width:1.0"/>
<circle cx="415" cy="317" r="3.0" style="fill:rgb(88, 118, 226);stroke:black;stroke-width:1.0"/>
<circle cx="348" cy="171" r="3.0" style="fill:rgb(72, 96, 209);stroke:black;stroke-width:1.0"/>
<circle cx="360" cy="520" r="3.0" style="fill:rgb(58, 76, 192);stroke:black;stroke-width:1.0"/>
<circle cx="611" cy="227" r="3.0" style="fill:rgb(64, 84, 199);stroke:black;stroke-width:1.0"/>
<circle cx="206" cy="487" r="3.0" style="fill:rgb(58, 76, 192);stroke:black;stroke-width:1.0"/>
<circle cx="720" cy="229" r="3.0" style="fill:rgb(58, 76, 192);stroke:black;stroke-width:1.0"/>
<circle cx="367" cy="80" r="3.0" style="fill:rgb(60, 79, 195);stroke:black;stroke-width:1.0"/>
<circle cx="277" cy="96" r="3.0" style="fill:rgb(60, 79, 195);stroke:black;stroke-width:1.0"/>
<circle cx="436" cy="458" r="3.0" style="fill:rgb(58, 76, 192);stroke:black;stroke-width:1.0"/>
<circle cx="462" cy="149" r="3.0" style="fill:rgb(60, 79, 195);stroke:black;stroke-width:1.0"/>
<circle cx="57" cy="138" r="3.0" style="fill:rgb(58, 76, 192);stroke:black;stroke-width:1.0"/>
<circle cx="541" cy="489" r="3.0" style="fill:rgb(58, 76, 192);stroke:black;stroke-width:1.0"/>
<circle cx="719" cy="313" r="3.0" style="fill:rgb(58, 76, 192);stroke:black;stroke-width:1.0"/>
<circle cx="443" cy="497" r="3.0" style="fill:rgb(64, 84, 199);stroke:black;stroke-width:1.0"/>
<circle cx="82" cy="170" r="3.0" style="fill:rgb(58, 76, 192);stroke:black;stroke-width:1.0"/>
<circle cx="514" cy="45" r="3.0" style="fill:rgb(58, 76, 192);stroke:black;stroke-width:1.0"/>
<circle cx="584" cy="356" r="3.0" style="fill:rgb(60, 79, 195);stroke:black;stroke-width:1.0"/>
<circle cx="487" cy="352" r="3.0" style="fill:rgb(64, 84, 199);stroke:black;stroke-width:1.0"/>
<circle cx="277" cy="287" r="3.0" style="fill:rgb(96, 128, 232);stroke:black;stroke-width:1.0"/>
<circle cx="603" cy="88" r="3.0" style="fill:rgb(58, 76, 192);stroke:black;stroke-width:1.0"/>
<circle cx="664" cy="410" r="3.0" style="fill:rgb(58, 76, 192);stroke:black;stroke-width:1.0"/>
<circle cx="462" cy="292" r="3.0" style="fill:rgb(72, 96, 209);stroke:black;stroke-width:1.0"/>
<circle cx="372" cy="267" r="3.0" style="fill:rgb(179, 3, 38);stroke:black;stroke-width:1.0"/>
<circle cx="91" cy="212" r="3.0" style="fill:rgb(58, 76, 192);stroke:black;stroke-width:1.0"/>
<circle cx="665" cy="207" r="3.0" style="fill:rgb(64, 84, 199);stroke:black;stroke-width:1.0"/>
<circle cx="354" cy="477" r="3.0" style="fill:rgb(64, 84, 199);stroke:black;stroke-width:1.0"/>
<circle cx="414" cy="210" r="3.0" style="fill:rgb(70, 93, 207);stroke:black;stroke-width:1.0"/>
<circle cx="272" cy="134" r="3.0" style="fill:rgb(70, 93, 207);stroke:black;stroke-width:1.0"/>
<circle cx="314" cy="211" r="3.0" style="fill:rgb(72, 96, 209);stroke:black;stroke-width:1.0"/>
<circle cx="496" cy="95" r="3.0" style="fill:rgb(58, 76, 192);stroke:black;stroke-width:1.0"/>
<circle cx="361" cy="386" r="3.0" style="fill:rgb(64, 84, 199);stroke:black;stroke-width:1.0"/>
<circle cx="160" cy="365" r="3.0" style="fill:rgb(66, 88, 202);stroke:black;stroke-width:1.0"/>
<circle cx="577" cy="170" r="3.0" style="fill:rgb(60, 79, 195);stroke:black;stroke-width:1.0"/>
<circle cx="20" cy="299" r="3.0" style="fill:rgb(58, 76, 192);stroke:black;stroke-width:1.0"/>
<circle cx="320" cy="309" r="3.0" style="fill:rgb(80, 107, 218);stroke:black;stroke-width:1.0"/>
<text text-anchor="start" x="106" y="421" font-size="12">eft</text><text text-anchor="start" x="653" y="314" font-size="12">reserve”of</text><text text-anchor="start" x="221" y="441" font-size="12">gurvais grigg</text><text text-anchor="start" x="429" y="255" font-size="12">trump</text><text text-anchor="start" x="162" y="94" font-size="12">josé roman martínez</text><text text-anchor="start" x="449" y="20" font-size="12">usdt</text><text text-anchor="start" x="551" y="443" font-size="12">david gerard</text><text text-anchor="start" x="266" y="257" font-size="12">china</text><text text-anchor="start" x="103" y="268" font-size="12">bill gates</text><text text-anchor="start" x="223" y="173" font-size="12">celsius</text><text text-anchor="start" x="264" y="368" font-size="12">bank of england</text><text text-anchor="start" x="191" y="56" font-size="12">resources, conservation and recycling</text><text text-anchor="start" x="197" y="388" font-size="12">apple</text><text text-anchor="start" x="254" y="515" font-size="12">barack obama</text><text text-anchor="start" x="273" y="51" font-size="12">eric grill</text><text text-anchor="start" x="357" y="337" font-size="12">elon musk</text><text text-anchor="start" x="461" y="62" font-size="12">emeç</text><text text-anchor="start" x="350" y="250" font-size="12">us</text><text text-anchor="start" x="248" y="323" font-size="12">donald trump</text><text text-anchor="start" x="421" y="317" font-size="12">uk</text><text text-anchor="start" x="354" y="171" font-size="12">america</text><text text-anchor="start" x="366" y="520" font-size="12">binance boss</text><text text-anchor="start" x="617" y="227" font-size="12">christian stoll</text><text text-anchor="start" x="212" y="487" font-size="12">bitcoin beach</text><text text-anchor="start" x="726" y="229" font-size="12">johns hopkins universitysays</text><text text-anchor="start" x="373" y="80" font-size="12">satoshi nakamoto</text><text text-anchor="start" x="283" y="96" font-size="12">ethereum</text><text text-anchor="start" x="442" y="458" font-size="12">us securities and exchange commission</text><text text-anchor="start" x="468" y="149" font-size="12">miami</text><text text-anchor="start" x="63" y="138" font-size="12">manhattan</text><text text-anchor="start" x="547" y="489" font-size="12">sam bankman-friedcommitted</text><text text-anchor="start" x="725" y="313" font-size="12">morgan</text><text text-anchor="start" x="449" y="497" font-size="12">markets</text><text text-anchor="start" x="88" y="170" font-size="12">kanye west</text><text text-anchor="start" x="520" y="45" font-size="12">recep tayyip erdoğan</text><text text-anchor="start" x="590" y="356" font-size="12">twitter</text><text text-anchor="start" x="493" y="352" font-size="12">tether</text><text text-anchor="start" x="283" y="287" font-size="12">tesla</text><text text-anchor="start" x="609" y="88" font-size="12">monero</text><text text-anchor="start" x="670" y="410" font-size="12">luckyhttps://t.co/3zhsd3ooxl</text><text text-anchor="start" x="468" y="292" font-size="12">musk</text><text text-anchor="start" x="378" y="267" font-size="12">bitcoin</text><text text-anchor="start" x="97" y="212" font-size="12">authorof</text><text text-anchor="start" x="671" y="207" font-size="12">alex de vries</text><text text-anchor="start" x="360" y="477" font-size="12">naeem aslam</text><text text-anchor="start" x="420" y="210" font-size="12">el salvador</text><text text-anchor="start" x="278" y="134" font-size="12">chainbytes</text><text text-anchor="start" x="320" y="211" font-size="12">guardian</text><text text-anchor="start" x="502" y="95" font-size="12">brosens</text><text text-anchor="start" x="367" y="386" font-size="12">turkey</text><text text-anchor="start" x="166" y="365" font-size="12">fbi</text><text text-anchor="start" x="583" y="170" font-size="12">robert f kennedy jr</text><text text-anchor="start" x="26" y="299" font-size="12">joseph james o’connor</text><text text-anchor="start" x="326" y="309" font-size="12">sec</text></svg>
