<svg width="919.7854350582" height="540" xmlns="http://www.w3.org/2000/svg">
<path stroke-width="0.1" stroke="gray" d="M 399 520 393 273"/>
<path stroke-width="0.1" stroke="gray" d="M 359 392 399 520"/>
<path stroke-width="0.1" stroke="gray" d="M 20 283 393 273"/>
<path stroke-width="0.1" stroke="gray" d="M 269 236 238 172"/>
<path stroke-width="0.1" stroke="gray" d="M 269 236 359 392"/>
<path stroke-width="0.1" stroke="gray" d="M 269 236 393 273"/>
<path stroke-width="0.1" stroke="gray" d="M 603 83 393 273"/>
<path stroke-width="0.1" stroke="gray" d="M 482 411 359 392"/>
<path stroke-width="0.1" stroke="gray" d="M 482 411 382 442"/>
<path stroke-width="0.1" stroke="gray" d="M 482 411 367 321"/>
<path stroke-width="0.1" stroke="gray" d="M 482 411 393 273"/>
<path stroke-width="0.1" stroke="gray" d="M 124 371 248 358"/>
<path stroke-width="0.1" stroke="gray" d="M 124 371 101 273"/>
<path stroke-width="0.1" stroke="gray" d="M 124 371 155 467"/>
<path stroke-width="0.1" stroke="gray" d="M 124 371 393 273"/>
<path stroke-width="0.1" stroke="gray" d="M 382 442 248 358"/>
<path stroke-width="0.1" stroke="gray" d="M 382 442 359 392"/>
<path stroke-width="0.1" stroke="gray" d="M 382 442 482 411"/>
<path stroke-width="0.1" stroke="gray" d="M 359 392 393 273"/>
<path stroke-width="0.1" stroke="gray" d="M 359 392 367 321"/>
<path stroke-width="0.1" stroke="gray" d="M 359 392 382 442"/>
<path stroke-width="0.1" stroke="gray" d="M 359 392 482 411"/>
<path stroke-width="0.1" stroke="gray" d="M 248 358 382 442"/>
<path stroke-width="0.1" stroke="gray" d="M 248 358 367 321"/>
<path stroke-width="0.1" stroke="gray" d="M 248 358 393 273"/>
<path stroke-width="0.1" stroke="gray" d="M 259 430 359 392"/>
<path stroke-width="0.1" stroke="gray" d="M 259 430 367 321"/>
<path stroke-width="0.1" stroke="gray" d="M 259 430 393 273"/>
<path stroke-width="0.1" stroke="gray" d="M 515 205 367 321"/>
<path stroke-width="0.1" stroke="gray" d="M 515 205 393 273"/>
<path stroke-width="0.1" stroke="gray" d="M 382 442 367 321"/>
<path stroke-width="0.1" stroke="gray" d="M 93 137 393 273"/>
<path stroke-width="0.1" stroke="gray" d="M 720 327 393 273"/>
<path stroke-width="0.1" stroke="gray" d="M 596 485 393 273"/>
<path stroke-width="0.1" stroke="gray" d="M 238 172 269 236"/>
<path stroke-width="0.1" stroke="gray" d="M 238 172 367 321"/>
<path stroke-width="0.1" stroke="gray" d="M 238 172 393 273"/>
<path stroke-width="0.1" stroke="gray" d="M 496 36 393 273"/>
<path stroke-width="0.1" stroke="gray" d="M 359 392 259 430"/>
<path stroke-width="0.1" stroke="gray" d="M 359 392 269 236"/>
<path stroke-width="0.1" stroke="gray" d="M 720 327 707 254"/>
<path stroke-width="0.1" stroke="gray" d="M 382 442 393 273"/>
<path stroke-width="0.1" stroke="gray" d="M 687 156 393 273"/>
<path stroke-width="0.1" stroke="gray" d="M 367 321 248 358"/>
<path stroke-width="0.1" stroke="gray" d="M 393 273 496 36"/>
<path stroke-width="0.1" stroke="gray" d="M 393 273 359 392"/>
<path stroke-width="0.1" stroke="gray" d="M 393 273 20 283"/>
<path stroke-width="0.1" stroke="gray" d="M 393 273 269 236"/>
<path stroke-width="0.1" stroke="gray" d="M 393 273 603 83"/>
<path stroke-width="0.1" stroke="gray" d="M 393 273 482 411"/>
<path stroke-width="0.1" stroke="gray" d="M 393 273 124 371"/>
<path stroke-width="0.1" stroke="gray" d="M 393 273 382 442"/>
<path stroke-width="0.1" stroke="gray" d="M 393 273 238 172"/>
<path stroke-width="0.1" stroke="gray" d="M 393 273 687 156"/>
<path stroke-width="0.1" stroke="gray" d="M 393 273 707 254"/>
<path stroke-width="0.1" stroke="gray" d="M 393 273 640 379"/>
<path stroke-width="0.1" stroke="gray" d="M 393 273 101 273"/>
<path stroke-width="0.1" stroke="gray" d="M 393 273 155 467"/>
<path stroke-width="0.1" stroke="gray" d="M 393 273 301 20"/>
<path stroke-width="0.1" stroke="gray" d="M 393 273 399 520"/>
<path stroke-width="0.1" stroke="gray" d="M 301 20 393 273"/>
<path stroke-width="0.1" stroke="gray" d="M 399 520 359 392"/>
<path stroke-width="0.1" stroke="gray" d="M 393 273 367 321"/>
<path stroke-width="0.1" stroke="gray" d="M 248 358 124 371"/>
<path stroke-width="0.1" stroke="gray" d="M 393 273 596 485"/>
<path stroke-width="0.1" stroke="gray" d="M 393 273 93 137"/>
<path stroke-width="0.1" stroke="gray" d="M 367 321 259 430"/>
<path stroke-width="0.1" stroke="gray" d="M 367 321 515 205"/>
<path stroke-width="0.1" stroke="gray" d="M 367 321 238 172"/>
<path stroke-width="0.1" stroke="gray" d="M 367 321 359 392"/>
<path stroke-width="0.1" stroke="gray" d="M 367 321 482 411"/>
<path stroke-width="0.1" stroke="gray" d="M 367 321 382 442"/>
<path stroke-width="0.1" stroke="gray" d="M 367 321 393 273"/>
<path stroke-width="0.1" stroke="gray" d="M 707 254 720 327"/>
<path stroke-width="0.1" stroke="gray" d="M 393 273 720 327"/>
<path stroke-width="0.1" stroke="gray" d="M 707 254 393 273"/>
<path stroke-width="0.1" stroke="gray" d="M 101 273 124 371"/>
<path stroke-width="0.1" stroke="gray" d="M 101 273 393 273"/>
<path stroke-width="0.1" stroke="gray" d="M 155 467 124 371"/>
<path stroke-width="0.1" stroke="gray" d="M 155 467 393 273"/>
<path stroke-width="0.1" stroke="gray" d="M 393 273 372 66"/>
<path stroke-width="0.1" stroke="gray" d="M 393 273 248 358"/>
<path stroke-width="0.1" stroke="gray" d="M 393 273 259 430"/>
<path stroke-width="0.1" stroke="gray" d="M 393 273 515 205"/>
<path stroke-width="0.1" stroke="gray" d="M 640 379 393 273"/>
<path stroke-width="0.1" stroke="gray" d="M 372 66 393 273"/>
<circle cx="399" cy="520" r="3.0" style="fill:rgb(66, 88, 202);stroke:black;stroke-width:1.0"/>
<circle cx="301" cy="20" r="3.0" style="fill:rgb(58, 76, 192);stroke:black;stroke-width:1.0"/>
<circle cx="393" cy="273" r="3.0" style="fill:rgb(179, 3, 38);stroke:black;stroke-width:1.0"/>
<circle cx="155" cy="467" r="3.0" style="fill:rgb(66, 88, 202);stroke:black;stroke-width:1.0"/>
<circle cx="101" cy="273" r="3.0" style="fill:rgb(66, 88, 202);stroke:black;stroke-width:1.0"/>
<circle cx="640" cy="379" r="3.0" style="fill:rgb(58, 76, 192);stroke:black;stroke-width:1.0"/>
<circle cx="707" cy="254" r="3.0" style="fill:rgb(70, 93, 207);stroke:black;stroke-width:1.0"/>
<circle cx="367" cy="321" r="3.0" style="fill:rgb(138, 173, 253);stroke:black;stroke-width:1.0"/>
<circle cx="687" cy="156" r="3.0" style="fill:rgb(58, 76, 192);stroke:black;stroke-width:1.0"/>
<circle cx="382" cy="442" r="3.0" style="fill:rgb(99, 131, 234);stroke:black;stroke-width:1.0"/>
<circle cx="124" cy="371" r="3.0" style="fill:rgb(92, 123, 229);stroke:black;stroke-width:1.0"/>
<circle cx="482" cy="411" r="3.0" style="fill:rgb(88, 118, 226);stroke:black;stroke-width:1.0"/>
<circle cx="603" cy="83" r="3.0" style="fill:rgb(58, 76, 192);stroke:black;stroke-width:1.0"/>
<circle cx="269" cy="236" r="3.0" style="fill:rgb(80, 107, 218);stroke:black;stroke-width:1.0"/>
<circle cx="20" cy="283" r="3.0" style="fill:rgb(58, 76, 192);stroke:black;stroke-width:1.0"/>
<circle cx="359" cy="392" r="3.0" style="fill:rgb(127, 162, 250);stroke:black;stroke-width:1.0"/>
<circle cx="496" cy="36" r="3.0" style="fill:rgb(58, 76, 192);stroke:black;stroke-width:1.0"/>
<circle cx="238" cy="172" r="3.0" style="fill:rgb(80, 107, 218);stroke:black;stroke-width:1.0"/>
<circle cx="596" cy="485" r="3.0" style="fill:rgb(58, 76, 192);stroke:black;stroke-width:1.0"/>
<circle cx="720" cy="327" r="3.0" style="fill:rgb(70, 93, 207);stroke:black;stroke-width:1.0"/>
<circle cx="93" cy="137" r="3.0" style="fill:rgb(58, 76, 192);stroke:black;stroke-width:1.0"/>
<circle cx="515" cy="205" r="3.0" style="fill:rgb(66, 88, 202);stroke:black;stroke-width:1.0"/>
<circle cx="259" cy="430" r="3.0" style="fill:rgb(76, 102, 214);stroke:black;stroke-width:1.0"/>
<circle cx="248" cy="358" r="3.0" style="fill:rgb(88, 118, 226);stroke:black;stroke-width:1.0"/>
<circle cx="372" cy="66" r="3.0" style="fill:rgb(58, 76, 192);stroke:black;stroke-width:1.0"/>
<text text-anchor="start" x="405" y="520" font-size="12">reserve”of</text><text text-anchor="start" x="307" y="20" font-size="12">Sam Bankman-Friedcommitted</text><text text-anchor="start" x="399" y="273" font-size="12">Bitcoin</text><text text-anchor="start" x="161" y="467" font-size="12">Kanye West</text><text text-anchor="start" x="107" y="273" font-size="12">Bill Gates</text><text text-anchor="start" x="646" y="379" font-size="12">Barack Obama</text><text text-anchor="start" x="713" y="254" font-size="12">Satoshi Nakamoto</text><text text-anchor="start" x="373" y="321" font-size="12">US</text><text text-anchor="start" x="693" y="156" font-size="12">David Gerard</text><text text-anchor="start" x="388" y="442" font-size="12">Donald Trump</text><text text-anchor="start" x="130" y="371" font-size="12">Joseph James O’Connor</text><text text-anchor="start" x="488" y="411" font-size="12">Robert F Kennedy Jr</text><text text-anchor="start" x="609" y="83" font-size="12">Gurvais Grigg</text><text text-anchor="start" x="275" y="236" font-size="12">Tether</text><text text-anchor="start" x="26" y="283" font-size="12">Monero</text><text text-anchor="start" x="365" y="392" font-size="12">Trump</text><text text-anchor="start" x="502" y="36" font-size="12">Morgan</text><text text-anchor="start" x="244" y="172" font-size="12">UK</text><text text-anchor="start" x="602" y="485" font-size="12">Binance boss</text><text text-anchor="start" x="726" y="327" font-size="12">authorof</text><text text-anchor="start" x="99" y="137" font-size="12">US Securities and Exchange Commission</text><text text-anchor="start" x="521" y="205" font-size="12">Celsius</text><text text-anchor="start" x="265" y="430" font-size="12">America</text><text text-anchor="start" x="254" y="358" font-size="12">Apple</text><text text-anchor="start" x="378" y="66" font-size="12">Brosens</text></svg>
