<svg width="907.5032810895763" height="540" xmlns="http://www.w3.org/2000/svg">
<path stroke-width="0.1" stroke="gray" d="M 446 45 359 280"/>
<path stroke-width="0.1" stroke="gray" d="M 359 280 249 56"/>
<path stroke-width="0.1" stroke="gray" d="M 359 280 672 397"/>
<path stroke-width="0.1" stroke="gray" d="M 359 280 346 20"/>
<path stroke-width="0.1" stroke="gray" d="M 359 280 283 177"/>
<path stroke-width="0.1" stroke="gray" d="M 359 280 357 222"/>
<path stroke-width="0.1" stroke="gray" d="M 359 280 191 271"/>
<path stroke-width="0.1" stroke="gray" d="M 359 280 408 284"/>
<path stroke-width="0.1" stroke="gray" d="M 359 280 720 285"/>
<path stroke-width="0.1" stroke="gray" d="M 359 280 114 195"/>
<path stroke-width="0.1" stroke="gray" d="M 359 280 552 284"/>
<path stroke-width="0.1" stroke="gray" d="M 359 280 538 484"/>
<path stroke-width="0.1" stroke="gray" d="M 359 280 20 284"/>
<path stroke-width="0.1" stroke="gray" d="M 359 280 101 440"/>
<path stroke-width="0.1" stroke="gray" d="M 359 280 302 288"/>
<path stroke-width="0.1" stroke="gray" d="M 359 280 643 269"/>
<path stroke-width="0.1" stroke="gray" d="M 359 280 38 368"/>
<path stroke-width="0.1" stroke="gray" d="M 359 280 446 45"/>
<path stroke-width="0.1" stroke="gray" d="M 359 280 148 70"/>
<path stroke-width="0.1" stroke="gray" d="M 26 174 359 280"/>
<path stroke-width="0.1" stroke="gray" d="M 359 280 563 76"/>
<path stroke-width="0.1" stroke="gray" d="M 359 280 250 372"/>
<path stroke-width="0.1" stroke="gray" d="M 431 386 408 284"/>
<path stroke-width="0.1" stroke="gray" d="M 431 386 302 288"/>
<path stroke-width="0.1" stroke="gray" d="M 635 149 359 280"/>
<path stroke-width="0.1" stroke="gray" d="M 450 165 359 280"/>
<path stroke-width="0.1" stroke="gray" d="M 450 165 302 288"/>
<path stroke-width="0.1" stroke="gray" d="M 574 374 431 386"/>
<path stroke-width="0.1" stroke="gray" d="M 574 374 359 280"/>
<path stroke-width="0.1" stroke="gray" d="M 574 374 643 269"/>
<path stroke-width="0.1" stroke="gray" d="M 427 520 359 280"/>
<path stroke-width="0.1" stroke="gray" d="M 197 497 359 280"/>
<path stroke-width="0.1" stroke="gray" d="M 359 280 431 386"/>
<path stroke-width="0.1" stroke="gray" d="M 359 280 635 149"/>
<path stroke-width="0.1" stroke="gray" d="M 359 280 450 165"/>
<path stroke-width="0.1" stroke="gray" d="M 359 280 574 374"/>
<path stroke-width="0.1" stroke="gray" d="M 359 280 427 520"/>
<path stroke-width="0.1" stroke="gray" d="M 359 280 197 497"/>
<path stroke-width="0.1" stroke="gray" d="M 359 280 26 174"/>
<path stroke-width="0.1" stroke="gray" d="M 359 280 311 515"/>
<path stroke-width="0.1" stroke="gray" d="M 250 372 359 280"/>
<path stroke-width="0.1" stroke="gray" d="M 250 372 357 222"/>
<path stroke-width="0.1" stroke="gray" d="M 311 515 359 280"/>
<path stroke-width="0.1" stroke="gray" d="M 720 285 359 280"/>
<path stroke-width="0.1" stroke="gray" d="M 114 195 359 280"/>
<path stroke-width="0.1" stroke="gray" d="M 114 195 191 271"/>
<path stroke-width="0.1" stroke="gray" d="M 552 284 359 280"/>
<path stroke-width="0.1" stroke="gray" d="M 552 284 408 284"/>
<path stroke-width="0.1" stroke="gray" d="M 538 484 359 280"/>
<path stroke-width="0.1" stroke="gray" d="M 20 284 359 280"/>
<path stroke-width="0.1" stroke="gray" d="M 101 440 359 280"/>
<path stroke-width="0.1" stroke="gray" d="M 302 288 431 386"/>
<path stroke-width="0.1" stroke="gray" d="M 302 288 450 165"/>
<path stroke-width="0.1" stroke="gray" d="M 302 288 359 280"/>
<path stroke-width="0.1" stroke="gray" d="M 302 288 283 177"/>
<path stroke-width="0.1" stroke="gray" d="M 302 288 191 271"/>
<path stroke-width="0.1" stroke="gray" d="M 302 288 408 284"/>
<path stroke-width="0.1" stroke="gray" d="M 643 269 574 374"/>
<path stroke-width="0.1" stroke="gray" d="M 643 269 359 280"/>
<path stroke-width="0.1" stroke="gray" d="M 38 368 359 280"/>
<path stroke-width="0.1" stroke="gray" d="M 408 284 302 288"/>
<path stroke-width="0.1" stroke="gray" d="M 408 284 552 284"/>
<path stroke-width="0.1" stroke="gray" d="M 408 284 191 271"/>
<path stroke-width="0.1" stroke="gray" d="M 408 284 357 222"/>
<path stroke-width="0.1" stroke="gray" d="M 563 76 359 280"/>
<path stroke-width="0.1" stroke="gray" d="M 148 70 359 280"/>
<path stroke-width="0.1" stroke="gray" d="M 249 56 359 280"/>
<path stroke-width="0.1" stroke="gray" d="M 672 397 359 280"/>
<path stroke-width="0.1" stroke="gray" d="M 346 20 359 280"/>
<path stroke-width="0.1" stroke="gray" d="M 283 177 359 280"/>
<path stroke-width="0.1" stroke="gray" d="M 283 177 408 284"/>
<path stroke-width="0.1" stroke="gray" d="M 283 177 302 288"/>
<path stroke-width="0.1" stroke="gray" d="M 431 386 359 280"/>
<path stroke-width="0.1" stroke="gray" d="M 357 222 359 280"/>
<path stroke-width="0.1" stroke="gray" d="M 357 222 408 284"/>
<path stroke-width="0.1" stroke="gray" d="M 191 271 359 280"/>
<path stroke-width="0.1" stroke="gray" d="M 191 271 408 284"/>
<path stroke-width="0.1" stroke="gray" d="M 191 271 114 195"/>
<path stroke-width="0.1" stroke="gray" d="M 191 271 302 288"/>
<path stroke-width="0.1" stroke="gray" d="M 408 284 431 386"/>
<path stroke-width="0.1" stroke="gray" d="M 408 284 359 280"/>
<path stroke-width="0.1" stroke="gray" d="M 408 284 283 177"/>
<path stroke-width="0.1" stroke="gray" d="M 357 222 250 372"/>
<path stroke-width="0.1" stroke="gray" d="M 431 386 574 374"/>
<circle cx="446" cy="45" r="3.0" style="fill:rgb(58, 76, 192);stroke:black;stroke-width:1.0"/>
<circle cx="38" cy="368" r="3.0" style="fill:rgb(58, 76, 192);stroke:black;stroke-width:1.0"/>
<circle cx="643" cy="269" r="3.0" style="fill:rgb(66, 88, 202);stroke:black;stroke-width:1.0"/>
<circle cx="302" cy="288" r="3.0" style="fill:rgb(103, 136, 237);stroke:black;stroke-width:1.0"/>
<circle cx="101" cy="440" r="3.0" style="fill:rgb(58, 76, 192);stroke:black;stroke-width:1.0"/>
<circle cx="20" cy="284" r="3.0" style="fill:rgb(58, 76, 192);stroke:black;stroke-width:1.0"/>
<circle cx="538" cy="484" r="3.0" style="fill:rgb(58, 76, 192);stroke:black;stroke-width:1.0"/>
<circle cx="552" cy="284" r="3.0" style="fill:rgb(64, 84, 199);stroke:black;stroke-width:1.0"/>
<circle cx="114" cy="195" r="3.0" style="fill:rgb(64, 84, 199);stroke:black;stroke-width:1.0"/>
<circle cx="720" cy="285" r="3.0" style="fill:rgb(58, 76, 192);stroke:black;stroke-width:1.0"/>
<circle cx="408" cy="284" r="3.0" style="fill:rgb(116, 151, 245);stroke:black;stroke-width:1.0"/>
<circle cx="191" cy="271" r="3.0" style="fill:rgb(86, 115, 224);stroke:black;stroke-width:1.0"/>
<circle cx="357" cy="222" r="3.0" style="fill:rgb(76, 102, 214);stroke:black;stroke-width:1.0"/>
<circle cx="283" cy="177" r="3.0" style="fill:rgb(72, 96, 209);stroke:black;stroke-width:1.0"/>
<circle cx="346" cy="20" r="3.0" style="fill:rgb(58, 76, 192);stroke:black;stroke-width:1.0"/>
<circle cx="672" cy="397" r="3.0" style="fill:rgb(58, 76, 192);stroke:black;stroke-width:1.0"/>
<circle cx="249" cy="56" r="3.0" style="fill:rgb(58, 76, 192);stroke:black;stroke-width:1.0"/>
<circle cx="148" cy="70" r="3.0" style="fill:rgb(58, 76, 192);stroke:black;stroke-width:1.0"/>
<circle cx="563" cy="76" r="3.0" style="fill:rgb(58, 76, 192);stroke:black;stroke-width:1.0"/>
<circle cx="311" cy="515" r="3.0" style="fill:rgb(58, 76, 192);stroke:black;stroke-width:1.0"/>
<circle cx="250" cy="372" r="3.0" style="fill:rgb(66, 88, 202);stroke:black;stroke-width:1.0"/>
<circle cx="26" cy="174" r="3.0" style="fill:rgb(58, 76, 192);stroke:black;stroke-width:1.0"/>
<circle cx="359" cy="280" r="3.0" style="fill:rgb(179, 3, 38);stroke:black;stroke-width:1.0"/>
<circle cx="197" cy="497" r="3.0" style="fill:rgb(58, 76, 192);stroke:black;stroke-width:1.0"/>
<circle cx="427" cy="520" r="3.0" style="fill:rgb(58, 76, 192);stroke:black;stroke-width:1.0"/>
<circle cx="574" cy="374" r="3.0" style="fill:rgb(76, 102, 214);stroke:black;stroke-width:1.0"/>
<circle cx="450" cy="165" r="3.0" style="fill:rgb(64, 84, 199);stroke:black;stroke-width:1.0"/>
<circle cx="635" cy="149" r="3.0" style="fill:rgb(58, 76, 192);stroke:black;stroke-width:1.0"/>
<circle cx="431" cy="386" r="3.0" style="fill:rgb(82, 110, 220);stroke:black;stroke-width:1.0"/>
<text text-anchor="start" x="452" y="45" font-size="12">eft</text><text text-anchor="start" x="44" y="368" font-size="12">reserve”of</text><text text-anchor="start" x="649" y="269" font-size="12">gurvais grigg</text><text text-anchor="start" x="308" y="288" font-size="12">trump</text><text text-anchor="start" x="107" y="440" font-size="12">usdt</text><text text-anchor="start" x="26" y="284" font-size="12">david gerard</text><text text-anchor="start" x="544" y="484" font-size="12">bill gates</text><text text-anchor="start" x="558" y="284" font-size="12">celsius</text><text text-anchor="start" x="120" y="195" font-size="12">apple</text><text text-anchor="start" x="726" y="285" font-size="12">barack obama</text><text text-anchor="start" x="414" y="284" font-size="12">us</text><text text-anchor="start" x="197" y="271" font-size="12">donald trump</text><text text-anchor="start" x="363" y="222" font-size="12">uk</text><text text-anchor="start" x="289" y="177" font-size="12">america</text><text text-anchor="start" x="352" y="20" font-size="12">binance boss</text><text text-anchor="start" x="678" y="397" font-size="12">satoshi nakamoto</text><text text-anchor="start" x="255" y="56" font-size="12">us securities and exchange commission</text><text text-anchor="start" x="154" y="70" font-size="12">sam bankman-friedcommitted</text><text text-anchor="start" x="569" y="76" font-size="12">morgan</text><text text-anchor="start" x="317" y="515" font-size="12">kanye west</text><text text-anchor="start" x="256" y="372" font-size="12">tether</text><text text-anchor="start" x="32" y="174" font-size="12">monero</text><text text-anchor="start" x="365" y="280" font-size="12">bitcoin</text><text text-anchor="start" x="203" y="497" font-size="12">authorof</text><text text-anchor="start" x="433" y="520" font-size="12">brosens</text><text text-anchor="start" x="580" y="374" font-size="12">fbi</text><text text-anchor="start" x="456" y="165" font-size="12">robert f kennedy jr</text><text text-anchor="start" x="641" y="149" font-size="12">joseph james o’connor</text><text text-anchor="start" x="437" y="386" font-size="12">sec</text></svg>
